<?xml version="1.0" encoding="utf-8"?>
<!-- Generator: Adobe Illustrator 23.0.4, SVG Export Plug-In . SVG Version: 6.00 Build 0)  -->
<svg version="1.1" id="logo" xmlns="http://www.w3.org/2000/svg" xmlns:xlink="http://www.w3.org/1999/xlink" x="0px" y="0px"
	 viewBox="0 0 75.3 50" style="enable-background:new 0 0 75.3 50;" xml:space="preserve">
<style type="text/css">
	.st0{fill:#00ADEF;}
	.st1{fill:#485665;}
</style>
<g id="fulltimeforce">
	<g id="graphic">
		<g>
			<ellipse transform="matrix(0.2297 -0.9733 0.9733 0.2297 29.3366 79.4331)" class="st0" cx="64.8" cy="21.2" rx="2.3" ry="1.6"/>
			<path class="st0" d="M69,17c-0.2,0.8-1.1,3.4-1.7,4.7c-1.3,2.8-2.1,2.8-5.9,3.8s-5.4,4.1-6.2,5.7c-0.8,1.5-0.1,2.6,0.8,1.2
				c1.3-2.1,2.5-3.4,3.2-3.8c1.2-0.8,2.8-1.4,1.2,1.5c-1.6,3.2-5,7-10.6,10.3c-2.5,1.4-5.6,2.7-8.6,3.8c-17.5,6.6-34.4,4.5-38.5-5.1
				c-1.6-3.8-0.9-8.3,1.5-12.8v-3.5c-4,5.8-5.4,11.9-3.2,17C5.5,50.3,23.1,53,41.4,46.5l0,0c4.8-1.8,17.4-6.6,23.7-16.3
				c3.4-5.2,4.8-11.4,5.1-12.9C70.3,15.7,69.3,16.3,69,17z"/>
			<path class="st0" d="M22.5,9.8c1.8-1,3.8-1.9,5.8-2.8C45.7-0.3,63,1.5,63,9.8h2.7c0-10.3-17.6-13.4-37.8-4.9
				c-3.5,1.5-6.6,3.2-9.5,4.9C18.4,9.8,22.5,9.8,22.5,9.8z"/>
		</g>
	</g>
	<g id="type">
		<g>
			<g>
				<path class="st1" d="M5.7,11.3h7.8v2.1H8.4v2.2h4.5v2.1H8.4v4.3H5.7V11.3z"/>
				<path class="st1" d="M14.4,17.8v-6.6h2.7v6.4c0,1.5,0.8,2.2,2.2,2.2s2.2-0.7,2.2-2.2v-6.4h2.7v6.6c0,2.8-1.9,4.2-4.9,4.2
					C16.4,22,14.4,20.6,14.4,17.8z"/>
				<path class="st1" d="M25.8,11.2h2.7v8.6h5v2.1h-7.7V11.2z"/>
				<path class="st1" d="M34.5,11.2h2.7v8.6h5v2.1h-7.7V11.2z"/>
				<path class="st1" d="M43.4,13.3h-3.2v-2.1h9v2.1h-3.2v8.6h-2.7V13.3z"/>
				<path class="st1" d="M50.3,11.2H53v10.7h-2.7V11.2z"/>
			</g>
			<g>
				<path class="st1" d="M5.7,24.1h7.8v2.1H8.4v2.2h4.5v2.1H8.4v4.3H5.7V24.1z"/>
				<path class="st1" d="M13.5,29.5c0-3.9,1.8-5.5,5.3-5.5s5.3,1.6,5.3,5.5c0,3.8-1.8,5.5-5.3,5.5S13.5,33.2,13.5,29.5z M21.4,29.5
					c0-2.4-0.8-3.2-2.6-3.2c-1.8,0-2.6,0.8-2.6,3.2c0,2.2,0.8,3.2,2.6,3.2C20.5,32.6,21.4,31.6,21.4,29.5z"/>
				<path class="st1" d="M25.2,24.1h5.3c2.5,0,3.7,1.5,3.7,3.7c0,1.5-0.8,2.5-2,3.1c0.3,0.2,0.5,0.5,0.7,1l1.2,2.8h-2.8L30.2,32
					c-0.2-0.5-0.5-0.7-1.1-0.7h-1.2v3.4h-2.7C25.2,34.7,25.2,24.1,25.2,24.1z M29.8,29.3c1.1,0,1.7-0.5,1.7-1.5
					c0-1.1-0.5-1.6-1.5-1.6h-2.1v3.2H29.8z"/>
				<path class="st1" d="M35,29.5c0-3.5,1.9-5.6,5.7-5.6c1.3,0,2.3,0.2,3.2,0.5v2.3c-0.9-0.4-1.9-0.6-3-0.6c-2.2,0-3.2,1-3.2,3.3
					c0,2.2,1.1,3.2,3.2,3.2c1.1,0,2.1-0.2,3-0.6v2.4c-0.9,0.3-1.9,0.5-3.2,0.5C37,34.9,35,32.9,35,29.5z"/>
				<path class="st1" d="M45.3,24.1h7.8v2.1h-5.2v2.2h4.6v2.1h-4.6v2.2h5.2v2.1h-7.8V24.1z"/>
			</g>
		</g>
		<g>
			<path class="st1" d="M70.9,17.6h3.7v-2.1h-4.4c0.4,0.2,0.9,0.5,0.8,1.8C70.9,17.4,70.9,17.5,70.9,17.6z"/>
			<path class="st1" d="M69.7,21.9h5.5v-2.1h-4.8C70.2,20.4,69.9,21.1,69.7,21.9z"/>
			<path class="st1" d="M67.3,11.2v8.3c0.3-0.9,0.6-1.8,0.8-2.4l0.1-0.3c0.2-0.8,1-1.4,1.8-1.3v-2.2h5.2v-2.1L67.3,11.2L67.3,11.2z"
				/>
		</g>
		<path class="st1" d="M57.3,15.7l2.2,4.3h1.5l2.1-4.3v3.6c0.5-0.8,1.3-1.3,2.1-1.3c0.2,0,0.3,0,0.5,0.1h0.1v-6.9H63l-2.8,5.9
			l-2.9-5.9h-2.5v10.7h2.7L57.3,15.7L57.3,15.7z"/>
	</g>
</g>
</svg>
